<?xml version="1.0"?>
<svg version="1.1" xmlns="http://www.w3.org/2000/svg" width="400px" height="200px" style="border: dashed 2px #aaa"><path fill="#212e2b" d="M89.7275390625,123.619140625q0-0.9912109375,0.6796875-1.26025390625t1.47265625-0.26904296875q1.3876953125,0,2.3505859375,1.24609375t1.82666015625,2.73291015625t1.71337890625,2.73291015625t2.0107421875,1.24609375q0.8779296875,0,1.60009765625-0.43896484375t1.24609375-1.1044921875t0.80712890625-1.5009765625t0.283203125-1.65673828125q0-2.15234375-0.86376953125-4.4462890625t-2.208984375-4.7294921875t-2.84619140625-4.984375t-2.83203125-5.1826171875t-2.208984375-5.36669921875t-0.8779296875-5.50830078125q0-4.1630859375,2.4921875-6.45703125t6.5703125-2.2939453125q1.3876953125,0,2.8037109375,0.396484375t2.60546875,1.189453125t1.93994140625,1.9541015625t0.75048828125,2.71875q0,0.509765625-0.75048828125,0.66552734375t-1.09033203125,0.15576171875q-0.509765625,0-1.1044921875-0.12744140625t-0.7646484375-0.69384765625t-0.4814453125-1.302734375t-0.77880859375-1.37353515625t-1.1044921875-1.1044921875t-1.40185546875-0.46728515625q-1.2744140625,0-2.16650390625,0.52392578125t-1.4443359375,1.40185546875t-0.8212890625,1.96826171875t-0.26904296875,2.25146484375q0,2.71875,0.9345703125,5.47998046875t2.322265625,5.494140625t3.01611328125,5.39501953125t3.01611328125,5.1826171875t2.322265625,4.927734375t0.9345703125,4.5595703125q0,1.92578125-0.90625,3.2568359375t-2.2939453125,2.16650390625t-3.07275390625,1.2177734375t-3.29931640625,0.38232421875q-1.7275390625,0-3.5400390625-0.69384765625t-3.2568359375-1.91162109375t-2.37890625-2.84619140625t-0.9345703125-3.52587890625z M115.20647460937,118.4365234375q0-1.92578125,0.52392578125-3.7099609375t1.57177734375-3.18603515625t2.61962890625-2.2373046875t3.63916015625-0.83544921875q1.2744140625,0,2.81787109375,0.38232421875t2.90283203125,1.1328125t2.265625,1.91162109375t0.90625,2.662109375q0,0.7080078125-0.24072265625,1.076171875t-0.97705078125,0.3681640625l-0.3115234375-0.056640625q0.8212890625,2.208984375,1.416015625,4.53125t1.1611328125,4.64453125q0.2265625,0.453125,0.33984375,0.80712890625t0.11328125,0.69384765625q0,0.453125-0.2548828125,0.75048828125t-0.66552734375,0.43896484375t-0.849609375,0.1982421875t-0.77880859375,0.056640625q-1.2177734375,0-1.82666015625-0.4248046875t-0.8779296875-1.1611328125t-0.32568359375-1.65673828125t-0.2265625-1.85498046875q-0.33984375,1.1044921875-0.89208984375,2.15234375t-1.302734375,1.88330078125t-1.77001953125,1.3310546875t-2.2939453125,0.49560546875q-1.869140625,0-3.1435546875-1.076171875t-2.05322265625-2.64794921875t-1.1328125-3.35595703125t-0.35400390625-3.3134765625z M119.22795898437,118.0400390625q0,1.0478515625,0.1416015625,2.208984375t0.46728515625,2.2939453125t0.83544921875,2.13818359375t1.2744140625,1.77001953125q1.3876953125-1.5009765625,2.05322265625-3.6533203125t1.189453125-4.14892578125t1.189453125-3.4267578125t2.05322265625-1.43017578125q0.8779296875,0,1.47265625,0.3115234375q-0.283203125-0.7080078125-0.9345703125-1.37353515625t-1.45849609375-1.2177734375t-1.6708984375-0.90625t-1.62841796875-0.35400390625q-0.2265625,0-0.52392578125,0.07080078125t-0.46728515625,0.01416015625q-1.1611328125,0.33984375-1.91162109375,1.17529296875t-1.2177734375,1.96826171875t-0.66552734375,2.322265625t-0.1982421875,2.2373046875z M139.821640625,111.34228515625q-0.07080078125-0.94873046875,0.11328125-1.74169921875t0.736328125-1.28857421875t1.77001953125-0.49560546875q0.283203125,0,0.69384765625,0.07080078125t0.80712890625,0.18408203125t0.66552734375,0.33984375t0.26904296875,0.623046875l0,3.2001953125q1.1044921875-1.2744140625,2.4072265625-1.82666015625t2.9736328125-0.55224609375q1.2744140625,0,2.5205078125,0.58056640625t2.3505859375,1.54345703125t1.91162109375,2.1240234375t1.17529296875,2.322265625q0.2265625-1.0478515625,0.509765625-2.56298828125t0.83544921875-2.90283203125t1.45849609375-2.37890625t2.4072265625-0.9912109375q1.6142578125,0,2.71875,1.1611328125t1.79833984375,3.01611328125t1.0478515625,4.14892578125t0.52392578125,4.53125t0.169921875,4.17724609375l0,3.04443359375q0,0.33984375-0.2548828125,0.55224609375t-0.63720703125,0.32568359375t-0.79296875,0.1416015625t-0.63720703125,0.0283203125q-0.8779296875,0-1.60009765625-0.26904296875t-0.72216796875-1.37353515625l0-2.548828125t-0.056640625-3.29931640625t-0.1982421875-3.5400390625t-0.3681640625-3.21435546875t-0.58056640625-2.322265625t-0.86376953125-0.90625q-0.7080078125,0-1.01953125,0.79296875t-0.52392578125,2.0107421875t-0.32568359375,2.5771484375t-0.3115234375,2.5771484375t-0.63720703125,1.99658203125t-1.20361328125,0.77880859375q-0.8212890625,0-1.4443359375-0.77880859375t-1.23193359375-1.93994140625t-1.2177734375-2.4921875t-1.34521484375-2.4921875q-0.736328125-1.189453125-1.5859375-1.92578125q-0.7646484375-0.7080078125-1.7275390625-0.6796875l-0.1416015625,0q-1.2744140625,0.056640625-1.99658203125,0.92041015625t-1.1044921875,2.10986328125t-0.46728515625,2.67626953125t-0.0849609375,2.50634765625q0,1.01953125,0.169921875,2.37890625q0.11328125,0.90625,0.11328125,1.7275390625q0,0.4248046875-0.0283203125,0.8212890625q-0.0849609375,1.189453125-0.63720703125,1.99658203125t-2.05322265625,0.80712890625q-0.56640625,0-1.416015625-0.11328125t-1.1328125-0.7646484375q-0.6513671875-1.1611328125-0.9912109375-2.93115234375t-0.509765625-3.6533203125t-0.1982421875-3.73828125t-0.0283203125-3.18603515625q0-0.9345703125-0.07080078125-1.88330078125z M175.56668945312,118.578125l0-0.8212890625q0-1.01953125,0.056640625-1.92578125q0.056640625-1.2744140625,0.056640625-2.095703125q0-0.453125,0.056640625-1.03369140625t0.283203125-0.92041015625q0.283203125-0.283203125,0.66552734375-0.58056640625t0.83544921875-0.29736328125q1.4443359375,0,2.265625,0.32568359375t0.8779296875,1.34521484375l0.11328125,0.8779296875q0.509765625-1.2177734375,1.359375-3.01611328125t1.96826171875-3.4267578125t2.5205078125-2.775390625t2.95947265625-1.14697265625q1.4443359375,0,2.37890625,1.359375t1.48681640625,3.46923828125t0.77880859375,4.701171875t0.3115234375,5.08349609375t0.11328125,4.54541015625t0.1982421875,3.10107421875q0.11328125,0.8779296875,0.38232421875,1.85498046875t0.26904296875,1.79833984375q0,0.2265625-0.32568359375,0.43896484375t-0.69384765625,0.35400390625t-0.75048828125,0.2265625t-0.55224609375,0.0849609375q-1.1044921875,0-1.57177734375-1.65673828125t-0.58056640625-4.14892578125t-0.11328125-5.39501953125t-0.1982421875-5.39501953125t-0.80712890625-4.14892578125t-1.93994140625-1.71337890625q-1.2177734375,0-2.5205078125,1.57177734375t-2.2373046875,4.17724609375q-0.90625,2.60546875-1.24609375,5.9189453125q-0.11328125,1.0478515625-0.11328125,2.095703125q0,2.2939453125,0.4814453125,4.587890625q0.056640625,0.396484375-0.32568359375,0.5947265625t-0.94873046875,0.3115234375t-1.14697265625,0.1416015625t-0.89208984375,0.0283203125q-1.1044921875,0-1.77001953125-0.77880859375t-1.03369140625-1.99658203125t-0.49560546875-2.73291015625t-0.15576171875-2.98779296875z M201.3005078125,119.59765625q0-1.982421875,0.43896484375-4.6728515625t1.48681640625-5.09765625t2.76123046875-4.09228515625t4.31884765625-1.68505859375q2.435546875,0,3.6533203125,1.40185546875t1.2177734375,3.78076171875q0,1.5576171875-0.58056640625,3.41259765625t-1.65673828125,3.51171875t-2.548828125,2.76123046875t-3.28515625,1.1044921875l-0.736328125-0.056640625q0,0.7646484375,0.2265625,2.05322265625t0.66552734375,2.56298828125t1.1328125,2.2373046875t1.68505859375,0.962890625q1.4443359375,0,2.775390625-1.1611328125t2.5205078125-2.5771484375t2.208984375-2.5771484375t1.869140625-1.1611328125q0.453125,0,0.9345703125,0.1416015625t0.5380859375,0.79296875q0,0.396484375-0.21240234375,0.6513671875t-0.38232421875,0.56640625q-0.8779296875,1.5009765625-1.91162109375,2.8603515625t-2.33642578125,2.4638671875t-2.84619140625,1.74169921875t-3.41259765625,0.63720703125q-2.435546875,0-4.0498046875-0.86376953125t-2.60546875-2.322265625t-1.43017578125-3.3701171875t-0.43896484375-4.00732421875z M206.36984375,117.4453125l0.79296875,0.7080078125q0.56640625,0.509765625,1.1328125,0.2265625t1.01953125-1.03369140625t0.83544921875-1.85498046875t0.6796875-2.265625t0.43896484375-2.265625t0.1416015625-1.8408203125l0-0.962890625t-0.0849609375-1.01953125t-0.29736328125-0.80712890625t-0.66552734375-0.41064453125q-0.1416015625-0.0283203125-0.2548828125-0.0283203125q-0.962890625,0-1.642578125,1.2177734375q-0.736328125,1.359375-1.189453125,3.29931640625t-0.6513671875,3.97900390625t-0.2548828125,3.05859375z M224.96694335937,86.1513671875q0-0.56640625,0.8779296875-0.80712890625t1.4443359375-0.24072265625q0.6513671875,0,1.43017578125,0.169921875t0.94873046875,0.8779296875q0.8212890625,3.3134765625,1.26025390625,6.75439453125t0.66552734375,6.92431640625t0.3681640625,6.92431640625t0.3115234375,6.81103515625q0.7646484375-3.3701171875,1.57177734375-6.69775390625t2.10986328125-6.64111328125l0-2.265625q0-1.4443359375,1.00537109375-2.08154296875t2.70458984375-0.63720703125q0.169921875,0,0.77880859375,0.0849609375t0.60888671875,0.56640625q-0.11328125,0.33984375-0.26904296875,0.6513671875t-0.15576171875,0.6796875q0,4.3046875,1.01953125,8.82177734375t2.0107421875,8.79345703125q0.56640625-3.6533203125,1.302734375-7.2783203125t1.529296875-7.2216796875q1.0478515625-4.814453125,1.60009765625-8.00048828125t1.0478515625-5.041015625t1.076171875-2.6337890625t1.62841796875-0.77880859375q0.6513671875-0.056640625,1.2177734375,0.2265625t0.453125,0.9345703125q-2.0390625,9.85546875-3.80908203125,19.767578125t-3.61083984375,19.82421875q0,0.56640625,0.1982421875,1.3310546875t0.1982421875,1.359375q0,0.33984375-0.3115234375,0.56640625t-0.75048828125,0.38232421875t-0.962890625,0.21240234375t-0.92041015625,0.056640625q-0.8779296875,0-1.8408203125-0.26904296875t-1.24609375-1.54345703125q-0.9912109375-4.41796875-1.82666015625-8.87841796875t-1.54345703125-8.99169921875q-0.2265625,1.0478515625-0.4248046875,2.1240234375t-0.3681640625,2.1806640625q-0.8212890625,4.814453125-1.8125,9.62890625t-0.9912109375,9.7421875q0,1.2177734375-0.509765625,1.57177734375t-1.7275390625,0.35400390625q-0.9345703125,0-1.5859375-0.3115234375q-0.509765625-0.283203125-0.962890625-0.509765625q-0.396484375-0.2265625-0.72216796875-0.52392578125t-0.32568359375-0.58056640625q-0.453125-6.1455078125-0.63720703125-12.2060546875t-0.41064453125-12.2060546875q-0.2265625-5.5224609375-0.66552734375-11.03076171875t-0.97705078125-10.94580078125z M259.36677734375,118.4365234375q0-1.92578125,0.52392578125-3.7099609375t1.57177734375-3.18603515625t2.61962890625-2.2373046875t3.63916015625-0.83544921875q1.2744140625,0,2.81787109375,0.38232421875t2.90283203125,1.1328125t2.265625,1.91162109375t0.90625,2.662109375q0,0.7080078125-0.24072265625,1.076171875t-0.97705078125,0.3681640625l-0.3115234375-0.056640625q0.8212890625,2.208984375,1.416015625,4.53125t1.1611328125,4.64453125q0.2265625,0.453125,0.33984375,0.80712890625t0.11328125,0.69384765625q0,0.453125-0.2548828125,0.75048828125t-0.66552734375,0.43896484375t-0.849609375,0.1982421875t-0.77880859375,0.056640625q-1.2177734375,0-1.82666015625-0.4248046875t-0.8779296875-1.1611328125t-0.32568359375-1.65673828125t-0.2265625-1.85498046875q-0.33984375,1.1044921875-0.89208984375,2.15234375t-1.302734375,1.88330078125t-1.77001953125,1.3310546875t-2.2939453125,0.49560546875q-1.869140625,0-3.1435546875-1.076171875t-2.05322265625-2.64794921875t-1.1328125-3.35595703125t-0.35400390625-3.3134765625z M263.38826171875,118.0400390625q0,1.0478515625,0.1416015625,2.208984375t0.46728515625,2.2939453125t0.83544921875,2.13818359375t1.2744140625,1.77001953125q1.3876953125-1.5009765625,2.05322265625-3.6533203125t1.189453125-4.14892578125t1.189453125-3.4267578125t2.05322265625-1.43017578125q0.8779296875,0,1.47265625,0.3115234375q-0.283203125-0.7080078125-0.9345703125-1.37353515625t-1.45849609375-1.2177734375t-1.6708984375-0.90625t-1.62841796875-0.35400390625q-0.2265625,0-0.52392578125,0.07080078125t-0.46728515625,0.01416015625q-1.1611328125,0.33984375-1.91162109375,1.17529296875t-1.2177734375,1.96826171875t-0.66552734375,2.322265625t-0.1982421875,2.2373046875z M283.91114257812,128.490234375q0-0.8212890625,0.07080078125-1.7275390625t0.12744140625-1.69921875l0.169921875-4.248046875q0.283203125-5.09765625,0.69384765625-10.025390625t0.69384765625-9.96875q0.169921875-2.775390625,0.2548828125-5.45166015625t0.2548828125-5.45166015625q-0.11328125-0.2265625-0.11328125-0.3115234375q0-0.396484375,0.29736328125-0.623046875t0.69384765625-0.38232421875t0.83544921875-0.21240234375t0.66552734375-0.056640625l0.6513671875,0q0.8779296875,0.11328125,1.2744140625,0.55224609375t0.509765625,1.0478515625t0.056640625,1.302734375t-0.056640625,1.28857421875q0,4.1064453125-0.1982421875,8.36865234375t-0.453125,8.552734375t-0.46728515625,8.5810546875t-0.21240234375,8.48193359375l0,1.982421875q0,1.3310546875-0.75048828125,1.755859375t-2.08154296875,0.4248046875q-1.1611328125,0-2.0390625-0.509765625t-0.8779296875-1.6708984375z M296.9008203125,117.7568359375q0-2.60546875,0.60888671875-5.11181640625t1.03369140625-4.99853515625q0.11328125-0.6513671875,0.89208984375-0.80712890625t1.31689453125-0.15576171875q0.9345703125,0,1.5009765625,0.283203125q0.2265625,0.11328125,0.4248046875,0.2548828125t0.1982421875,0.3681640625q0,2.435546875-0.58056640625,4.7578125t-0.58056640625,4.927734375q0,0.8779296875,0.12744140625,1.65673828125t0.24072265625,1.54345703125l0.169921875,0.8212890625q0,0.2265625,0.0283203125,0.396484375t0.0849609375,0.396484375q0,0.509765625-0.72216796875,0.69384765625t-1.26025390625,0.18408203125q-0.8212890625,0-1.51513671875-0.32568359375t-1.09033203125-1.11865234375l-0.396484375-0.8212890625q-0.33984375-0.6513671875-0.33984375-1.45849609375t-0.1416015625-1.48681640625z M298.7133203125,100.7080078125l0-0.5380859375q0-1.3310546875,0.66552734375-2.37890625t1.99658203125-1.0478515625q0.169921875,0,0.32568359375,0.0283203125t0.32568359375,0.0283203125q0.33984375,0.056640625,0.89208984375,0.26904296875t0.55224609375,0.66552734375l0,0.056640625q-0.11328125,0.2265625-0.1416015625,0.46728515625t-0.1416015625,0.41064453125l0.056640625-0.056640625q-0.33984375,0.8779296875-0.55224609375,1.416015625t-0.46728515625,0.86376953125t-0.63720703125,0.46728515625t-1.09033203125,0.1416015625q-0.11328125,0-0.396484375-0.0283203125t-0.60888671875-0.11328125t-0.55224609375-0.2265625t-0.2265625-0.4248046875z"/><path fill="#" d=""/></svg>
